<?xml version="1.0" encoding="utf-8"?>
<!-- Generator: Adobe Illustrator 24.3.0, SVG Export Plug-In . SVG Version: 6.00 Build 0)  -->
<svg version="1.1" id="Layer_1" xmlns="http://www.w3.org/2000/svg" xmlns:xlink="http://www.w3.org/1999/xlink" x="0px" y="0px"
	 viewBox="0 0 512 512" style="enable-background:new 0 0 512 512;" xml:space="preserve">
<style type="text/css">
	.st0{fill:#143658;}
	.st1{fill:#A4D0D9;}
</style>
<g>
	<path class="st0" d="M225.7,263.5v116H23.2V241.2h189.9v22.3H225.7z M298.8,241.2v22.3h-12.5v116h202.5V241.2H298.8z"/>
	<path class="st1" d="M213.2,129.9v95.4H23.2v-95.4H213.2z M298.8,129.9v95.4h189.9v-95.4H298.8z M23.2,395.4v22.3
		c0,8.9,1.7,17.2,4.7,25.1h197.8v-47.4H23.2z M286.2,395.4v47.4H484c3-7.9,4.7-16.1,4.7-25.1v-22.3H286.2z M36.4,458.7
		c1.1,1.9,2.6,3.6,4,5.1c2.1,2.8,4.7,5.1,7.2,7.2c2.1,1.9,4.5,3.8,7,5.5c0.2,0.2,0.6,0.4,1.1,0.6c2.3,1.7,5.1,3.2,7.9,4.5
		c0.4,0.4,0.9,0.6,1.5,0.6c2.3,1.1,4.7,2.1,7,2.8c3.6,1.1,7.2,2.1,10.8,2.8h0.2c3.8,0.8,7.4,1.1,11.3,1.1h131.3v-30.2H36.4z
		 M286.2,458.7v30.2h131.3c10.8,0,20.8-2.3,30-6.8c2.5-1.1,5.3-2.5,7.6-4.2c0.8-0.2,1.5-0.6,2.1-1.3c2.3-1.5,4.7-3.4,6.8-5.1
		c0.4-0.2,0.9-0.6,1.1-1.1c2.1-1.7,4-3.6,5.5-5.7c0.9-0.6,1.3-1.1,1.7-1.9c0.9-0.8,1.7-1.9,2.3-3c0.4-0.2,0.6-0.6,0.9-1.1H286.2z
		 M188.3,23.2H94.4c-9.8,0-19.1,1.9-27.6,5.7c-4.3,1.7-8.3,4-12.1,6.6s-7.4,5.5-10.6,8.7c-13,13-20.8,30.6-20.8,50.4v19.3h165.1
		V23.2z M467.9,44.2c-3.2-3.2-6.8-6.2-10.6-8.7c-3.8-2.5-7.6-4.9-11.9-6.6c-8.5-3.8-17.8-5.7-27.8-5.7h-93.9v90.7h165.1V94.6
		C488.7,74.8,480.6,57.2,467.9,44.2z"/>
</g>
</svg>
