<?xml version="1.0" encoding="utf-8"?>
<!-- Generator: Adobe Illustrator 25.4.1, SVG Export Plug-In . SVG Version: 6.00 Build 0)  -->
<svg version="1.1" id="Layer_1" xmlns="http://www.w3.org/2000/svg" xmlns:xlink="http://www.w3.org/1999/xlink" x="0px" y="0px"
	 viewBox="0 0 512 512" style="enable-background:new 0 0 512 512;" xml:space="preserve">
<style type="text/css">
	.st0{fill:#A4D0D9;}
	.st1{fill:#143658;}
</style>
<path class="st0" d="M56.6,5.75h116.63v167.14H5.75V56.58C5.75,28.51,28.51,5.75,56.6,5.75z"/>
<path class="st0" d="M506.25,56.58v116.31h-167.5V5.75h116.66C483.49,5.75,506.25,28.51,506.25,56.58z"/>
<path class="st1" d="M201.82,284.71v69.62H5.75V172.89h167.48v83.25c0,7.88,6.39,14.28,14.28,14.28h0.04
	C195.42,270.41,201.82,276.81,201.82,284.71z"/>
<path class="st1" d="M506.25,172.89v181.44H310.18v-69.62c0-7.9,6.39-14.3,14.28-14.3h0.02c7.88,0,14.28-6.39,14.28-14.28v-83.25
	H506.25z"/>
<path class="st0" d="M5.75,354.33h196.07v151.92H56.6c-28.08,0-50.85-22.77-50.85-50.85V354.33z"/>
<path class="st0" d="M506.25,354.33V455.4c0,28.08-22.77,50.85-50.83,50.85H310.18V354.33H506.25z"/>
</svg>
