<?xml version="1.0" encoding="UTF-8"?>
<svg id="Layer_4" data-name="Layer 4" xmlns="http://www.w3.org/2000/svg" viewBox="0 0 512 512">
  <defs>
    <style>
      .cls-1 {
        fill: #004162;
      }

      .cls-2 {
        fill: #00c0e5;
      }

      .cls-3 {
        fill: #007495;
      }

      .cls-4 {
        fill: #e7e6e9;
      }

      .cls-5 {
        fill: #fff;
      }

      .cls-6 {
        fill: #213348;
      }
    </style>
  </defs>
  <path class="cls-6" d="M509.5,256.03c0,11.77-.8,23.37-2.35,34.72-3.14,22.94-9.34,44.9-18.18,65.46-38.86,90.42-128.74,153.74-233.39,153.74S61.05,446.63,22.18,356.21c-8.84-20.56-15.04-42.52-18.17-65.46-1.56-11.35-2.36-22.94-2.36-34.72,0-7.35,.32-14.63,.92-21.82C13.64,104.19,122.69,2.11,255.58,2.11s241.93,102.09,253,232.1c.61,7.19,.92,14.47,.92,21.82Z"/>
  <path class="cls-5" d="M497.33,256.03c0,11.21-.76,22.25-2.24,33.05-2.99,21.84-8.9,42.75-17.31,62.33-37,86.09-122.57,146.37-222.2,146.37s-185.2-60.29-222.2-146.37c-8.41-19.58-14.32-40.48-17.3-62.33-1.48-10.8-2.25-21.84-2.25-33.05,0-7,.3-13.93,.88-20.78C25.24,111.47,129.06,14.28,255.58,14.28s230.33,97.19,240.87,220.97c.58,6.85,.88,13.78,.88,20.78Z"/>
  <path class="cls-4" d="M478.19,256.03c0,10.32-.7,20.49-2.06,30.44-2.76,20.11-8.19,39.37-15.94,57.39-34.07,79.27-112.87,134.79-204.62,134.79s-170.55-55.52-204.62-134.79c-7.75-18.03-13.18-37.28-15.93-57.39-1.37-9.95-2.07-20.11-2.07-30.44,0-6.44,.28-12.83,.81-19.13C43.47,122.91,139.07,33.41,255.58,33.41s212.11,89.5,221.81,203.49c.53,6.3,.81,12.69,.81,19.13Z"/>
  <path class="cls-3" d="M346.16,236.9h-30.64c-26.46-31.09-42.35-57.67-42.35-57.67-7.63-13.21-26.69-13.21-34.31,0,0,0-17.61,26.51-45.6,57.67h-28.21c43.58-48.72,73.81-112.46,73.81-112.46,7.63-13.21,26.69-13.21,34.31,0,0,0,29.48,63.49,72.99,112.46Z"/>
  <path class="cls-1" d="M315.52,236.9h-122.27c27.99-31.16,45.6-57.67,45.6-57.67,7.63-13.21,26.69-13.21,34.31,0,0,0,15.89,26.58,42.35,57.67Z"/>
  <path class="cls-2" d="M478.19,256.03c0,10.32-.7,20.49-2.06,30.44-.17,1.17-.33,2.35-.51,3.51-.03,.23-.07,.45-.1,.67-.16,1.03-.33,2.06-.5,3.09-.03,.15-.04,.3-.07,.43-.21,1.17-.42,2.35-.64,3.51-.23,1.23-.48,2.47-.73,3.7-.21,.99-.42,1.98-.63,2.97-.02,.08-.03,.17-.05,.24-.11,.51-.23,1.03-.36,1.54-.14,.64-.29,1.28-.44,1.91-.1,.41-.19,.83-.3,1.23-.21,.85-.43,1.7-.64,2.54-.06,.26-.13,.51-.19,.77-.3,1.13-.6,2.25-.91,3.37-.37,1.33-.76,2.65-1.16,3.97-.3,1.03-.62,2.06-.94,3.09-.02,.04-.03,.1-.05,.15-.32,1.03-.66,2.07-1.01,3.1-.74,2.24-1.52,4.48-2.34,6.7-.56,1.5-1.12,3.01-1.71,4.5-.27,.7-.55,1.4-.83,2.09-.04,.13-.1,.26-.16,.38-.17,.4-.32,.8-.49,1.2-.38,.91-.77,1.83-1.16,2.74-34.07,79.27-112.87,134.79-204.62,134.79s-170.55-55.52-204.62-134.79c-.3-.7-.6-1.4-.89-2.1-.03-.08-.07-.16-.1-.23-.23-.57-.47-1.12-.7-1.69-.43-1.05-.85-2.1-1.26-3.17-.35-.88-.69-1.77-1.02-2.65-.15-.39-.29-.78-.43-1.17-.28-.74-.55-1.48-.8-2.22-.21-.57-.41-1.14-.6-1.71-.14-.38-.27-.77-.39-1.15-.23-.65-.45-1.3-.66-1.96-.14-.41-.27-.82-.4-1.23-.22-.66-.43-1.32-.63-1.99-.62-1.97-1.21-3.94-1.77-5.93-.28-.98-.55-1.97-.81-2.96-.27-.98-.52-1.97-.77-2.97-.25-.99-.5-1.98-.73-2.98-.24-1-.47-1.99-.7-3-.31-1.41-.62-2.83-.9-4.25-.16-.77-.31-1.53-.45-2.3-.1-.53-.21-1.06-.3-1.59-.11-.58-.22-1.17-.31-1.75-.1-.49-.18-.98-.26-1.47-.16-.9-.3-1.81-.44-2.72-.03-.19-.06-.39-.09-.6-.19-1.2-.37-2.4-.53-3.61-1.37-9.95-2.07-20.11-2.07-30.44,0-6.44,.28-12.83,.81-19.13H477.39c.53,6.3,.81,12.69,.81,19.13Z"/>
  <path class="cls-3" d="M476.13,286.47c-2.76,20.11-8.19,39.37-15.94,57.39-34.07,79.27-112.87,134.79-204.62,134.79s-170.55-55.52-204.62-134.79c-7.75-18.03-13.18-37.28-15.93-57.39,0,0,82.06-2.63,109.24,0,28.22,2.73,82.96,21.74,111.31,21.74s83.09-19.01,111.31-21.74c27.19-2.63,109.25,0,109.25,0Z"/>
  <path class="cls-1" d="M460.19,343.86c-34.07,79.27-112.87,134.79-204.62,134.79s-170.55-55.52-204.62-134.79c0,0,34.18,17.39,93.31,0,55.14-16.22,83.48,35.65,111.31,35.65s59.48-49.25,111.31-35.65c53.05,13.91,93.31,0,93.31,0Z"/>
  <rect class="cls-5" x="248.62" y="122.11" width="14.78" height="333.06" rx="6.96" ry="6.96"/>
</svg>