<?xml version="1.0" standalone="no"?>
<!DOCTYPE svg PUBLIC "-//W3C//DTD SVG 20010904//EN"
 "http://www.w3.org/TR/2001/REC-SVG-20010904/DTD/svg10.dtd">
<svg version="1.0" xmlns="http://www.w3.org/2000/svg"
 width="700.000000pt" height="700.000000pt" viewBox="0 0 700.000000 700.000000"
 preserveAspectRatio="xMidYMid meet">
<metadata>
Created by potrace 1.14, written by Peter Selinger 2001-2017
</metadata>
<g transform="translate(0.000000,700.000000) scale(0.100000,-0.100000)"
fill="#000000" stroke="none">
<path d="M3250 6964 c-808 -72 -1477 -355 -2060 -870 -834 -738 -1260 -1829
-1149 -2944 134 -1343 1041 -2487 2325 -2933 562 -195 1204 -239 1804 -122
930 182 1760 754 2270 1567 90 144 236 437 297 598 300 791 302 1677 6 2465
-63 168 -206 456 -303 610 -561 894 -1469 1475 -2520 1611 -119 15 -565 27
-670 18z m561 -174 c744 -74 1432 -389 1963 -900 562 -541 899 -1211 1003
-1995 23 -180 23 -608 -1 -790 -97 -744 -408 -1390 -920 -1914 -591 -603
-1361 -951 -2196 -990 -809 -38 -1567 202 -2208 701 -133 104 -387 350 -495
481 -499 603 -766 1340 -767 2113 0 758 251 1476 728 2074 99 124 331 360 455
463 515 427 1133 689 1787 756 122 12 530 13 651 1z"/>
<path d="M3382 5404 c-69 -34 -102 -75 -169 -207 -242 -484 -569 -979 -923
-1399 l-31 -38 570 0 571 0 0 756 0 756 29 29 c23 23 38 29 71 29 33 0 48 -6
71 -29 l29 -29 0 -756 0 -756 566 0 565 0 -31 38 c-333 393 -633 849 -894
1357 -48 94 -99 182 -114 198 -74 78 -210 101 -310 51z"/>
<path d="M616 3093 l-138 -4 7 -47 c28 -199 102 -471 186 -680 380 -951 1231
-1655 2239 -1851 165 -32 238 -41 419 -51 555 -32 1142 100 1623 365 547 302
992 764 1271 1320 79 158 175 421 222 605 30 119 68 330 61 338 -12 11 -1320
15 -1443 3 -165 -15 -273 -37 -708 -141 -383 -92 -520 -121 -665 -143 l-85
-13 -5 -983 -5 -983 -28 -24 c-38 -33 -96 -33 -134 0 l-28 24 -5 983 -5 983
-90 12 c-133 18 -313 57 -655 140 -387 95 -565 131 -710 144 -103 9 -961 11
-1324 3z"/>
</g>
</svg>
