<svg xmlns="http://www.w3.org/2000/svg" width="24" height="24" viewBox="0 0 24 24">
<path fill="currentColor" d="M20.3,2.5H3.7c-0.7,0-1.2,0.6-1.2,1.2v16.5c0,0.7,0.6,1.2,1.2,1.2h16.5c0.7,0,1.2-0.6,1.2-1.2V3.7
	C21.5,3.1,20.9,2.5,20.3,2.5z M5.1,6.1c0.3-0.3,0.8-0.5,1.2-0.5l0,0c0.5,0,0.9,0.2,1.2,0.5s0.5,0.8,0.5,1.2S7.9,8.3,7.5,8.6
	C7.2,8.9,6.8,9.1,6.3,9.1c0,0,0,0,0,0c-0.4,0-0.9-0.2-1.2-0.5C4.8,8.3,4.6,7.8,4.6,7.4S4.8,6.4,5.1,6.1z M8.1,18.8
	c0,0.3-0.3,0.6-0.6,0.6H5.2c-0.3,0-0.6-0.3-0.6-0.6v-7.4c0-0.4,0.3-0.6,0.6-0.6h2.3c0.3,0,0.6,0.3,0.6,0.6V18.8z M19.4,19
	c0,0.2-0.2,0.4-0.4,0.4h-2.7c-0.2,0-0.4-0.2-0.4-0.4v-4.6c0-0.4-0.1-0.7-0.3-0.8c-0.2-0.2-0.5-0.4-0.9-0.4c-0.7,0-1.5,0.6-1.5,1.2
	v4.7c0,0.2-0.2,0.4-0.4,0.4h-2.7c-0.2,0-0.4-0.1-0.4-0.4v-7.9c0-0.2,0.2-0.4,0.4-0.4h2.5c0.2,0,0.4,0.2,0.4,0.4v0.3
	c0.6-0.6,1.7-0.9,2.5-0.9h0.4c1.6,0,3.5,1.3,3.5,2.9V19z"/>
</svg>
