
<svg xmlns="http://www.w3.org/2000/svg" width="24" height="24" viewBox="0 0 24 24">
<g>
	<path fill="currentColor" d="M6.7,16.7c0.3,0,0.6,0,0.9-0.1c0.3-0.1,0.5-0.2,0.8-0.3c0.2-0.1,0.4-0.3,0.5-0.6c0.1-0.2,0.2-0.6,0.2-1
		c0-0.8-0.2-1.3-0.6-1.6c-0.4-0.3-1-0.5-1.7-0.5H3.2v4.1L6.7,16.7L6.7,16.7z M6.5,10.4c0.6,0,1.1-0.1,1.4-0.4
		c0.4-0.3,0.6-0.7,0.6-1.3c0-0.3-0.1-0.6-0.2-0.8C8.2,7.6,8.1,7.4,7.8,7.3C7.6,7.2,7.4,7.1,7.1,7.1C6.9,7,6.6,7,6.3,7h-3v3.4H6.5
		L6.5,10.4z M7,4.5c0.7,0,1.3,0.1,1.9,0.2C9.5,4.8,10,5,10.4,5.3c0.4,0.3,0.7,0.7,1,1.1c0.2,0.5,0.3,1,0.3,1.7
		c0,0.7-0.2,1.4-0.5,1.9c-0.3,0.5-0.8,0.9-1.5,1.2c0.9,0.3,1.6,0.7,2,1.4c0.4,0.7,0.7,1.4,0.7,2.4c0,0.7-0.1,1.4-0.4,1.9
		c-0.3,0.5-0.7,1-1.2,1.3c-0.5,0.3-1,0.6-1.7,0.8c-0.6,0.2-1.3,0.2-1.9,0.2H0V4.5L7,4.5L7,4.5z"/>
	<path fill="currentColor" d="M20.4,11.1c-0.3-0.4-0.9-0.6-1.7-0.6c-0.5,0-0.9,0.1-1.2,0.2c-0.3,0.2-0.6,0.4-0.7,0.6
		c-0.2,0.2-0.3,0.5-0.4,0.8c-0.1,0.3-0.1,0.5-0.1,0.7H21C21,12,20.7,11.5,20.4,11.1L20.4,11.1z M17,16.7c0.4,0.4,1.1,0.6,1.9,0.6
		c0.6,0,1.1-0.1,1.5-0.4c0.4-0.3,0.7-0.6,0.8-0.9h2.6c-0.4,1.3-1,2.2-1.9,2.8c-0.9,0.6-1.9,0.8-3.1,0.8c-0.8,0-1.6-0.1-2.3-0.4
		c-0.7-0.3-1.2-0.7-1.7-1.1c-0.5-0.5-0.8-1.1-1.1-1.8c-0.3-0.7-0.4-1.5-0.4-2.3c0-0.8,0.1-1.5,0.4-2.2c0.3-0.7,0.6-1.3,1.1-1.8
		c0.5-0.5,1.1-0.9,1.7-1.2c0.7-0.3,1.4-0.4,2.2-0.4c0.9,0,1.7,0.2,2.4,0.5c0.7,0.3,1.2,0.8,1.7,1.4c0.4,0.6,0.7,1.3,0.9,2
		C24,13,24,13.8,24,14.6h-7.7C16.3,15.5,16.6,16.3,17,16.7L17,16.7z"/>
	<rect fill="currentColor" x="15.7" y="5.5"  width="6" height="1.5"/>
</g>
</svg>
